<?xml version="1.0" encoding="UTF-8" standalone="no"?>
<!DOCTYPE svg PUBLIC "-//W3C//DTD SVG 1.1//EN" "http://www.w3.org/Graphics/SVG/1.1/DTD/svg11.dtd">
<svg version="1.1" xmlns="http://www.w3.org/2000/svg" xmlns:xlink="http://www.w3.org/1999/xlink" preserveAspectRatio="xMidYMid meet" viewBox="0 0 640 640" width="300" height="300"><defs><path d="M453.12 395.25C449.67 391.85 446.45 388.03 445.87 386.82C444.05 382.87 442.48 362.65 443.31 353.16C443.81 348.05 444.94 339.01 446.01 333.07C447.72 323.31 448.17 311.12 448.2 283.07C448.14 280.17 448.26 270.22 448.32 261.12C448.41 241.85 448.09 239.8 443.34 228.72C440.2 221.48 439 220.02 434.03 216.76C430.93 214.77 427.22 212.1 425.78 210.95C424.35 209.8 421 208.23 418.27 207.33C415.53 206.43 409.89 203.87 405.72 201.72C401.56 199.46 396.01 197.23 393.36 196.66C388.38 195.74 383.84 194.53 372.24 191.22C368.44 190.16 361.67 188.72 357.21 188.05C352.64 187.37 353.04 187.01 348.93 186.25C344.82 185.49 343.11 185.61 341.41 185.15C339.71 184.7 319.56 183.11 318.24 183.78C317.8 183.97 313.17 184.47 307.8 184.82C298.66 185.39 289.25 187.13 270.49 191.46C266.04 192.51 260.09 193.58 257.39 193.96C254.59 194.35 250.48 194.98 248.21 195.5C241.7 196.96 237.77 196.43 236.3 193.89C234.26 190.13 229.51 190.73 224.55 195.39C222.17 197.62 217.49 201.11 214.16 203.18C208.07 206.91 204.15 211.95 202.98 217.67C202.69 219.15 201.86 224.57 201.05 229.56C200.35 234.55 199.46 239.11 199 239.62C198.31 240.65 193.29 260.08 189.91 274.89C189.06 278.7 188.17 287.11 187.93 293.53C187.41 304.96 186.93 309.86 182.94 341.98C181.83 350.49 180.55 362.2 180.02 367.95C179.06 377.75 178.79 378.7 175.85 381.54C174.16 383.16 170.18 385.52 167 386.84C162.4 388.73 160.83 390.04 158.8 393.89C157.37 396.49 156.08 400.49 155.84 402.94C155.54 406.57 155.91 407.66 158.48 409.62C163.3 413.52 169.18 419.52 171.15 422.73C172.93 425.51 172.88 426.25 170.93 436.53C169.75 442.47 167.85 449.97 166.7 453.33C164.18 460.16 162.13 486.17 162.26 509.21C162.33 523.78 166.48 547.88 170.48 556.88C175.43 568.29 186.84 582.94 193.9 587.07C202 591.8 209.95 593.3 236.93 595.31C258.8 596.82 264.79 596.93 272.24 595.84C277.21 595.14 288.91 594.6 298.33 594.58C314.61 594.72 316.11 594.58 328.84 590.99C336.23 588.93 346 586.47 350.45 585.53C354.99 584.71 359.23 583.55 359.9 583.05C360.57 582.55 366.06 579.96 372.11 577.18C378.15 574.4 383.87 571.5 384.77 570.69C385.67 569.99 389.56 567.42 393.22 565.05C397 562.58 401.36 559.17 403.07 557.23C413.7 544.85 422.35 533.65 425.77 527.73C429.43 521.51 429.84 520.03 430.18 511.8C430.45 506.78 430.23 499.06 429.72 494.64C428.11 479.03 427.22 463.88 427.48 457.14C427.68 453.41 427.66 447.84 427.5 444.83C427.14 439.78 427.4 438.83 431.21 433.79C433.52 430.81 435.38 428.02 435.41 427.48C435.55 424.92 442.89 418.04 447.48 416.25C458.2 412.12 460.93 409.17 459.66 403.1C459.39 402.12 456.47 398.64 453.12 395.25ZM432.27 416.39C430.92 417.6 429.39 419.98 428.99 421.56C428.58 423.15 426.1 427.3 423.56 430.8C418.49 437.38 417.93 439.81 419.15 448.77C419.64 451.58 419.86 459.3 419.83 465.72C419.8 472.25 420.53 482.47 421.37 488.62C422.22 494.66 422.69 503.68 422.43 508.49C422 516.5 421.6 517.87 417.48 524.71C407.81 541 395.06 554.87 383.57 561.42C372.95 567.59 355.51 575.2 349.34 576.37C345.98 577.15 336.2 579.72 327.71 582.15C312.59 586.57 312.15 586.66 296.96 586.37C288.62 586.13 277.35 586.58 272.18 587.16C264.63 588.14 257.78 587.98 237.95 586.47C205.52 584.06 200.89 582.53 190.78 571.59C186.94 567.42 183.83 563.61 183.86 562.97C183.89 562.43 183 560.99 181.99 559.97C179.76 557.71 174.37 540.5 172.52 529.36C170.31 516.82 170.05 507.81 171.07 485.16C172.02 463.69 173.23 455.4 176.76 447.45C178.83 442.85 182.57 429.24 182.77 425.72C182.85 424.12 179.97 420 173.71 413.12C165.32 403.89 164.63 402.78 165.43 399.93C166.1 397.4 167.9 395.89 173.74 392.89C177.82 390.75 182.82 387.38 184.96 385.46C189.02 381.72 189.15 381.2 188.67 368.43C188.55 364.78 189.09 358.81 189.82 355.1C190.56 351.39 192.05 337.77 193.08 324.86C196.4 283.6 197.33 274.23 198.39 272.46C198.99 271.42 200.28 267.32 201.25 263.2C202.22 259.18 204.61 250.74 206.67 244.43C208.72 238.22 210.51 230.82 210.67 228.05C210.99 222.07 213.6 215.46 216.65 212.63C223.98 205.85 230.61 204.07 238.83 206.45C240.62 206.97 245.05 206.36 250.69 204.95C255.68 203.72 261.86 202.35 264.56 201.96C267.27 201.46 271.17 200.5 273.36 199.76C285.15 195.58 311.55 192.52 327.57 193.39C338.99 194.12 361.59 197.92 371.61 200.83C375.41 201.89 381.95 203.64 386.18 204.72C390.29 205.81 395.13 207.46 396.79 208.41C398.45 209.36 404.31 211.92 409.66 214.04C415 216.15 420.64 218.92 422.17 220.18C423.72 221.33 425.37 222.39 426.01 222.42C428.68 222.57 432.98 228.26 435.8 235.38C438.06 241.18 438.9 245.4 439.1 251.62C439.16 256.34 439.36 262.56 439.41 265.45C440.44 299.67 439.89 311.74 435.84 348.79C434.2 363.27 435.02 383.45 437.58 389.58C438.52 391.99 441.92 396.46 445.07 399.63C450.14 404.72 450.54 405.28 448.76 406.47C447.65 407.16 446.13 407.72 445.27 407.67C443.78 407.59 436.78 412.24 432.27 416.39Z" id="bePIpfDjU"></path><path d="M331.24 275.41C331.2 276.27 329.77 276.83 327.75 276.72C325.82 276.72 319.6 276.92 314.01 277.15C308.43 277.49 296.32 277.58 287.22 277.51C278.12 277.45 270.41 277.46 269.97 277.65C268.86 278.34 247.3 278.98 231.99 278.9C224.39 278.81 217.63 279.19 217.18 279.59C215.27 281.09 217.32 284.85 220.38 285.66C221.96 286.06 228.06 286.18 233.96 285.97C244.38 285.36 259.51 284.89 283.64 284.28C290.4 284.11 301.66 283.76 308.63 283.61C319.25 283.22 321.81 283.36 324.94 284.92C335.59 290 344.04 284.36 336.94 277.01C334 273.96 331.37 273.17 331.24 275.41Z" id="aYPenMmFQ"></path><path d="M309.16 321.01C306.6 322.8 306.47 323.33 307.36 326.59C309.55 333.56 312.93 334.5 317.6 329.29C320.22 326.33 320.74 322.71 318.93 320.69C317.11 318.66 312.39 318.83 309.16 321.01Z" id="dBnLH4VVU"></path><path d="M241.03 390.23C239.19 390.67 229.04 390.22 225.95 389.84C223.61 389.6 221.02 389.89 220.35 390.39C218.13 391.88 218.48 395.22 221.01 397.92C223.44 400.63 225.36 400.73 245.2 400.1C248.21 400.05 249.57 396.69 247.8 393.71C245.66 389.73 244.83 389.37 241.03 390.23Z" id="czPdRmbqN"></path><path d="M241.75 316.06C237.92 315.53 237.48 315.72 236.47 318.66C235.82 320.66 235.8 323.01 236.44 324.98C237.36 327.81 237.78 328.05 241.54 327.72C245.74 327.41 250.38 324.77 250.49 322.64C250.53 321.89 249.55 320.34 248.33 319.09C247.01 317.73 244.19 316.4 241.75 316.06Z" id="a57RDCMdL"></path><path d="M226.14 514.18C224.62 514.53 219.88 515.02 215.68 515.44C208.58 516.12 207.81 516.4 207.7 518.54C207.62 519.92 208.08 521.34 208.7 521.8C209.32 522.16 215.06 522.9 221.57 523.47C233.08 524.42 233.19 524.31 234.4 521.81C235.87 518.36 235.97 518.58 232.25 516.02C230.09 514.51 227.97 513.96 226.14 514.18Z" id="cBXAaODyQ"></path><path d="M528.18 130.5C526.4 126.32 526.57 123.99 528.78 124.8C529.48 125.05 530.95 124.79 531.98 124.15C533.53 123.34 533.65 122.71 532.85 120.82C531.86 118.86 531.09 118.47 526.57 118.07C523.7 117.82 521.1 117.78 520.73 117.87C519.18 118.67 518.12 125 519.08 127.97C522.37 138.28 522.7 140.79 521.18 143.08C519.28 145.8 510.11 148.14 503.6 147.58C499.41 147.19 499.38 147.29 498.41 151.49C497.43 156.03 499.73 163.13 503.9 167.62C505.11 168.97 505.95 170.42 505.77 170.92C505.18 172.53 497.71 173.33 489.98 172.66C483.91 172.15 482.45 172.41 481.72 174.08C479.92 178.09 480.01 179.38 482.77 184.6C484.25 187.42 485.26 189.95 485.02 189.98C481.06 191.15 477.43 191.42 475.73 190.79C472.21 189.51 469 190.5 468.05 193.11C466.36 197.73 471.18 200.74 478.68 199.84C485.94 198.97 492.13 195.76 493.41 192.25C494.77 188.53 494.5 187.41 491.63 183.74C489.87 181.39 489.79 180.68 491.23 179.84C492.13 179.25 493.75 179.17 494.86 179.57C497.57 180.56 505.96 179.42 509.77 177.4C514.65 174.97 515.35 171.81 512.14 166.88C508.39 160.95 506.38 156.8 506.82 155.59C507.04 154.99 509.42 154.38 512.2 154.26C514.88 154.1 519.72 152.68 522.78 151.18C529.05 148.35 530.22 146.39 530 138.91C529.97 136.5 529.1 132.66 528.18 130.5Z" id="bjEq58hS5"></path><path d="M258.15 137.58C255.33 139.05 252.77 139.83 252.48 139.38C252.09 138.89 252.35 136.94 253.04 135.03C253.82 132.92 253.8 131.09 253.11 130.5C251.29 128.92 241.39 129.86 238.01 131.92C231.23 136.16 231.49 130.45 238.74 119.66C246.17 108.38 247.47 99.52 241.75 97.42C238.13 96.1 233.49 96.34 228.67 97.99C223.21 99.86 221.41 98.87 223.68 95.14C224.74 93.48 226.72 89.65 228.15 86.64C230.89 81.04 230.93 80.6 227.45 75.8C226.06 73.7 226.1 73.59 229.25 73.38C232.78 73.08 234.3 70.79 231.58 69.8C229.48 69.02 223.41 70.68 216.58 73.76C212.98 75.52 211.76 76.67 211.72 78.36C211.54 81.02 215.11 82.78 218.92 82.01C224.13 80.85 222.89 85.17 214.34 97.65C210.07 103.71 215.54 108.68 223.83 106.24C226.22 105.64 229.29 104.71 230.69 104.31C235.12 103.08 237.98 103.67 237.75 105.87C237.48 108.16 232.76 118.27 226.65 129.36C222.54 136.86 222.42 137.5 223.65 139.42C225.73 142.46 229.59 142.51 236.88 139.37C240.51 137.85 243.69 136.96 244.08 137.44C244.86 138.41 244.79 138.61 238.85 147.37C234.65 153.58 234.47 156.25 237.88 157.49C239.53 157.98 248.02 153.12 252.4 149.25C253.61 148.1 257.45 145.41 260.96 143.28C267.71 139.14 268.09 138.71 267.39 137.2C266.41 134.91 262.82 135.07 258.15 137.58Z" id="fNPu8GoTk"></path><path d="M182.45 167.35C177.16 170.24 166.62 174.25 165.73 173.66C165.2 173.3 166.6 171.02 169.07 167.91C183.4 150.36 174.55 144.55 148.99 154.85C148.49 155.05 146 156.08 141.51 157.94C142.71 153.73 143.38 151.39 143.51 150.92C145.13 145.05 145.1 143.74 143.41 142.23C140.72 139.91 131.67 140.54 121.97 143.69C121.49 143.84 119.09 144.6 114.78 145.96C115.25 143.18 115.51 141.64 115.57 141.33C116.05 138.31 115.73 136.29 114.66 135.58C112.44 134.09 106.41 135.59 98.9 139.69C92.69 143 90.5 145.13 90.88 147.06C91.05 148.34 97.49 147.37 98.38 146.04C99.51 144.35 108.09 141.35 108.53 142.42C108.8 142.98 108.02 144.52 106.72 145.7C103.51 148.96 102.31 153.05 104.18 154.3C106.13 155.61 111.44 154.4 120.26 150.66C128.01 147.35 137.47 146.1 137.47 148.41C137.41 149.27 135.65 152.86 133.59 156.5C129.81 163.11 129.54 164.86 132.29 166.7C133.72 167.65 135.53 167.06 149.6 161.05C158.42 157.3 167.61 155.1 168.32 156.73C169.09 158.27 163.91 166 157.01 173.61C152.7 178.31 151.57 180 151.75 181.66C152.35 187.48 157.61 185.98 178.1 174.61C189.56 168.26 189.35 168.37 189.09 167.04C188.77 165.41 185.62 165.49 182.45 167.35Z" id="b5so9OSi5b"></path><path d="M331.05 118.55C333.05 113.7 331.74 110.15 326.02 104.3C323.19 101.44 320.99 98.13 320.95 96.98C321.05 95.76 323.58 92.59 327.51 89.01C336.13 81.01 338.35 75.56 335.52 69.29C333.61 65.17 333.08 64.75 326.68 62.64C317.43 59.6 311.56 59.16 310.71 61.47C309.5 64.78 311.29 66.12 318.38 67.57C333.19 70.37 333.4 76.03 319.21 88.03C316.44 90.32 313.89 93.26 313.41 94.56C312.7 96.81 315.26 105.37 316.77 105.92C318.88 106.7 323.98 112.66 323.83 114.32C323.81 116.24 322.15 118.93 315.49 128.11C311.25 134.08 311.23 137.26 315.33 138.19C317.21 138.65 319.16 138 321.35 136.06C323.05 134.52 325.29 133.07 326.21 132.72C329.01 131.92 332.03 125.85 330.77 123.68C330.12 122.65 330.26 120.42 331.05 118.55Z" id="b1qZOG4ddz"></path><path d="M423.55 113.64C415.38 112.02 410.81 109.89 411.47 108.08C411.69 107.48 418.34 103.31 426.29 98.7C434.27 93.99 441.07 89.42 441.47 88.31C442.54 85.4 440.25 83.54 434.97 82.75C429.44 81.98 422.96 79.15 422.97 77.56C423.05 77.02 423.8 75.93 424.59 75.31C425.87 74.3 426.38 74.48 427.78 76.25C430.49 79.74 432.47 77.74 430.56 73.62C428.65 69.51 426.05 68.21 421.69 69.24C419.07 69.87 418.3 70.73 416.79 74.85C415.17 79.27 415.26 79.98 417.45 82.38C418.77 83.77 421.81 86.02 424.18 87.34C426.58 88.56 428.4 89.8 428.29 90.1C428.22 90.3 424.98 92.3 421.13 94.42C403.53 104.27 400.1 108.03 405.12 112.37C411.69 118.07 413.42 118.93 418.81 119.76C428.88 121.17 426.91 125 412.11 132.8C404.24 136.87 402.67 138.68 404.01 141.56C405.47 144.72 410.82 145.65 416.8 143.62C426.7 140.53 432.94 135.29 430.39 132.31C429.11 130.82 429.22 130.52 431.94 127.75C435.15 124.6 436.11 122.9 435.53 120.75C434.68 117.14 431.59 115.33 423.55 113.64Z" id="aiNxQFvOJ"></path></defs><g><g><g><use xlink:href="#bePIpfDjU" opacity="1" fill="#000000" fill-opacity="1"></use><g><use xlink:href="#bePIpfDjU" opacity="1" fill-opacity="0" stroke="#000000" stroke-width="1" stroke-opacity="0"></use></g></g><g><use xlink:href="#aYPenMmFQ" opacity="1" fill="#000000" fill-opacity="1"></use><g><use xlink:href="#aYPenMmFQ" opacity="1" fill-opacity="0" stroke="#000000" stroke-width="1" stroke-opacity="0"></use></g></g><g><use xlink:href="#dBnLH4VVU" opacity="1" fill="#000000" fill-opacity="1"></use><g><use xlink:href="#dBnLH4VVU" opacity="1" fill-opacity="0" stroke="#000000" stroke-width="1" stroke-opacity="0"></use></g></g><g><use xlink:href="#czPdRmbqN" opacity="1" fill="#000000" fill-opacity="1"></use><g><use xlink:href="#czPdRmbqN" opacity="1" fill-opacity="0" stroke="#000000" stroke-width="1" stroke-opacity="0"></use></g></g><g><use xlink:href="#a57RDCMdL" opacity="1" fill="#000000" fill-opacity="1"></use><g><use xlink:href="#a57RDCMdL" opacity="1" fill-opacity="0" stroke="#000000" stroke-width="1" stroke-opacity="0"></use></g></g><g><use xlink:href="#cBXAaODyQ" opacity="1" fill="#000000" fill-opacity="1"></use><g><use xlink:href="#cBXAaODyQ" opacity="1" fill-opacity="0" stroke="#000000" stroke-width="1" stroke-opacity="0"></use></g></g><g><use xlink:href="#bjEq58hS5" opacity="1" fill="#000000" fill-opacity="1"></use><g><use xlink:href="#bjEq58hS5" opacity="1" fill-opacity="0" stroke="#000000" stroke-width="1" stroke-opacity="0"></use></g></g><g><use xlink:href="#fNPu8GoTk" opacity="1" fill="#000000" fill-opacity="1"></use><g><use xlink:href="#fNPu8GoTk" opacity="1" fill-opacity="0" stroke="#000000" stroke-width="1" stroke-opacity="0"></use></g></g><g><use xlink:href="#b5so9OSi5b" opacity="1" fill="#000000" fill-opacity="1"></use><g><use xlink:href="#b5so9OSi5b" opacity="1" fill-opacity="0" stroke="#000000" stroke-width="1" stroke-opacity="0"></use></g></g><g><use xlink:href="#b1qZOG4ddz" opacity="1" fill="#000000" fill-opacity="1"></use><g><use xlink:href="#b1qZOG4ddz" opacity="1" fill-opacity="0" stroke="#000000" stroke-width="1" stroke-opacity="0"></use></g></g><g><use xlink:href="#aiNxQFvOJ" opacity="1" fill="#000000" fill-opacity="1"></use><g><use xlink:href="#aiNxQFvOJ" opacity="1" fill-opacity="0" stroke="#000000" stroke-width="1" stroke-opacity="0"></use></g></g></g></g></svg>